<svg xmlns="http://www.w3.org/2000/svg" width="512" height="512" viewBox="0 0 512 512" fill="none"><metadata><rdf:RDF xmlns:rdf="http://www.w3.org/1999/02/22-rdf-syntax-ns#" xmlns:dc="http://purl.org/dc/elements/1.1/"><rdf:Description><dc:creator>RealFaviconGenerator</dc:creator><dc:source>https://realfavicongenerator.net</dc:source></rdf:Description></rdf:RDF></metadata><rect width="512" height="512" rx="96" fill="#0043FF"></rect><g transform="translate(256 256) scale(10) translate(-14.4375 -16)">
    <path d="M10.5 10.5C10.5 4.70101 5.79899 0 0 0V21C0 26.799 4.701 31.5 10.5 31.5V10.5Z" fill="#D4FB20"></path>
    <path d="M18.375 10.5C24.174 10.5 28.875 15.201 28.875 21H21C15.201 21 10.5 16.299 10.5 10.5L18.375 10.5Z" fill="#D4FB20"></path>
    <path d="M18.375 31.5C24.174 31.5 28.875 26.799 28.875 21H21C15.201 21 10.5 25.701 10.5 31.5L18.375 31.5Z" fill="#D4FB20"></path>
  </g></svg>